<svg xmlns="http://www.w3.org/2000/svg" width="1280" height="720" viewBox="0 0 1280 720" role="img" aria-label="Task Manager demo screen">
  <defs>
    <linearGradient id="bg" x1="0%" y1="0%" x2="100%" y2="100%">
      <stop offset="0%" stop-color="#0b1224"/>
      <stop offset="50%" stop-color="#111a35"/>
      <stop offset="100%" stop-color="#131b3f"/>
    </linearGradient>
    <linearGradient id="card" x1="0%" y1="0%" x2="0%" y2="100%">
      <stop offset="0%" stop-color="rgba(255,255,255,0.15)"/>
      <stop offset="100%" stop-color="rgba(255,255,255,0.08)"/>
    </linearGradient>
    <filter id="blur">
      <feGaussianBlur stdDeviation="50" result="blur"/>
      <feMerge>
        <feMergeNode in="blur"/>
        <feMergeNode in="SourceGraphic"/>
      </feMerge>
    </filter>
  </defs>
  <rect width="1280" height="720" fill="url(#bg)"/>
  <circle cx="240" cy="140" r="180" fill="#43e4d8" opacity="0.13" filter="url(#blur)"/>
  <circle cx="1100" cy="90" r="190" fill="#a5b4ff" opacity="0.12" filter="url(#blur)"/>
  <circle cx="720" cy="640" r="220" fill="#38bdf8" opacity="0.12" filter="url(#blur)"/>

  <g transform="translate(160 80)">
    <rect x="0" y="0" width="960" height="60" rx="16" fill="rgba(255,255,255,0.05)" stroke="rgba(255,255,255,0.12)"/>
    <text x="32" y="38" fill="#c7d2fe" font-size="20" font-family="Inter, system-ui" font-weight="600">My tasks</text>
    <rect x="800" y="14" width="70" height="32" rx="10" fill="rgba(255,255,255,0.12)" stroke="rgba(255,255,255,0.2)"/>
    <text x="820" y="36" fill="#e0e7ff" font-size="14" font-family="Inter, system-ui" font-weight="600">Admin</text>
    <rect x="880" y="14" width="70" height="32" rx="10" fill="rgba(255,255,255,0.12)" stroke="rgba(255,255,255,0.2)"/>
    <text x="896" y="36" fill="#e0e7ff" font-size="14" font-family="Inter, system-ui" font-weight="600">Sign out</text>
  </g>

  <g transform="translate(160 170)">
    <rect x="0" y="0" width="960" height="180" rx="20" fill="url(#card)" stroke="rgba(255,255,255,0.14)"/>
    <text x="32" y="48" fill="#c7d2fe" font-size="16" font-family="Inter, system-ui" font-weight="600">New task</text>
    <rect x="32" y="70" width="260" height="46" rx="12" fill="rgba(255,255,255,0.08)" stroke="rgba(255,255,255,0.12)"/>
    <text x="48" y="100" fill="#e2e8f0" font-size="14" font-family="Inter, system-ui">Title</text>
    <rect x="320" y="70" width="200" height="46" rx="12" fill="rgba(255,255,255,0.08)" stroke="rgba(255,255,255,0.12)"/>
    <text x="336" y="100" fill="#e2e8f0" font-size="14" font-family="Inter, system-ui">Due date</text>
    <rect x="32" y="128" width="700" height="46" rx="12" fill="rgba(255,255,255,0.08)" stroke="rgba(255,255,255,0.12)"/>
    <text x="48" y="158" fill="#e2e8f0" font-size="14" font-family="Inter, system-ui">Details</text>
    <rect x="756" y="122" width="160" height="52" rx="14" fill="#a5b4ff"/>
    <text x="800" y="156" fill="#0b1224" font-size="16" font-family="Inter, system-ui" font-weight="700">Add task</text>
  </g>

  <g transform="translate(160 380)">
    <rect x="0" y="0" width="960" height="260" rx="20" fill="rgba(255,255,255,0.05)" stroke="rgba(255,255,255,0.12)"/>
    <text x="32" y="44" fill="#c7d2fe" font-size="16" font-family="Inter, system-ui" font-weight="600">My tasks</text>

    <g transform="translate(32 70)">
      <rect width="896" height="64" rx="14" fill="url(#card)" stroke="rgba(255,255,255,0.12)"/>
      <circle cx="26" cy="32" r="12" fill="#22c55e"/>
      <text x="52" y="34" fill="#e2e8f0" font-size="15" font-family="Inter, system-ui" font-weight="600">Design onboarding</text>
      <text x="52" y="56" fill="#9ca3af" font-size="13" font-family="Inter, system-ui">Due: 2025-01-10 · Completed</text>
      <rect x="780" y="20" width="90" height="28" rx="10" fill="rgba(255,255,255,0.12)" stroke="rgba(255,255,255,0.16)"/>
      <text x="802" y="39" fill="#e2e8f0" font-size="13" font-family="Inter, system-ui">Mark todo</text>
    </g>

    <g transform="translate(32 144)">
      <rect width="896" height="64" rx="14" fill="url(#card)" stroke="rgba(255,255,255,0.12)"/>
      <circle cx="26" cy="32" r="12" fill="#f59e0b"/>
      <text x="52" y="34" fill="#e2e8f0" font-size="15" font-family="Inter, system-ui" font-weight="600">API docs polish</text>
      <text x="52" y="56" fill="#9ca3af" font-size="13" font-family="Inter, system-ui">Due: 2025-01-05 · In progress</text>
      <rect x="780" y="20" width="90" height="28" rx="10" fill="rgba(255,255,255,0.12)" stroke="rgba(255,255,255,0.16)"/>
      <text x="806" y="39" fill="#e2e8f0" font-size="13" font-family="Inter, system-ui">Complete</text>
    </g>

    <g transform="translate(32 218)">
      <rect width="896" height="64" rx="14" fill="url(#card)" stroke="rgba(255,255,255,0.12)"/>
      <circle cx="26" cy="32" r="12" fill="#ef4444"/>
      <text x="52" y="34" fill="#e2e8f0" font-size="15" font-family="Inter, system-ui" font-weight="600">Schedule retro</text>
      <text x="52" y="56" fill="#9ca3af" font-size="13" font-family="Inter, system-ui">Due: 2024-12-30 · Overdue</text>
      <rect x="780" y="20" width="90" height="28" rx="10" fill="rgba(255,255,255,0.12)" stroke="rgba(255,255,255,0.16)"/>
      <text x="807" y="39" fill="#e2e8f0" font-size="13" font-family="Inter, system-ui">Resolve</text>
    </g>
  </g>

  <text x="160" y="672" fill="#94a3b8" font-size="13" font-family="Inter, system-ui">Admin panel is available separately and shows all tasks and the user list.</text>
</svg>

